<svg xmlns="http://www.w3.org/2000/svg" viewBox="0 0 200 65.081"><defs/><g fill="#003764"><path d="M55.936 42.646c.631 0 .8-.468.8-1.44 0-.529-.255-.733-.914-.739h-1.837c-.7 0-.86-.1-.86-.9v-2.693c0-.642-.006-1.11-.831-1.11h-1.359c-.825 0-.831.468-.831 1.11v2.751c0 .291 0 .839-.664.839h-.7c-.653 0-.892.431-.8 1.069.1.739.258 1.119 1 1.119h.507c.664 0 .672.337.672.77 0 .5-.017 7.38 0 10.654a9.14 9.14 0 00.144 1.865 2.886 2.886 0 001.768 2.115 6.131 6.131 0 003.662.1c1-.3 1.575-.717 1.389-1.361-.164-.576-.559-.906-1.411-.67a1.95 1.95 0 01-2.53-2.051c-.006-1.887-.013-10.63-.013-10.63 0-.679.121-.791.888-.791z"/><path d="M198.829 42.646c.631 0 .8-.468.8-1.44 0-.529-.257-.733-.914-.739h-1.838c-.7 0-.86-.1-.86-.9v-2.694c0-.642-.006-1.11-.831-1.11h-1.359c-.825 0-.831.468-.831 1.11v2.751c0 .291 0 .839-.664.839h-.7c-.65 0-.889.431-.8 1.069.1.739.26 1.119 1 1.119h.509c.664 0 .672.337.672.77 0 .5-.017 7.38 0 10.654a9.143 9.143 0 00.147 1.865 2.886 2.886 0 001.768 2.115 6.12 6.12 0 003.659.1c1.007-.3 1.577-.717 1.392-1.361-.164-.576-.56-.906-1.411-.67a1.95 1.95 0 01-2.547-2.043c-.006-1.887-.013-10.63-.013-10.63 0-.679.121-.791.888-.791z"/><path d="M148.838 55.014c0 .6.387 1.281 1.6 1.281.529 0 .817.085.817.836 0 .877-.382.864-.985.866l-5.937-.006c-.6 0-.985.006-.985-.866 0-.755.287-.836.814-.836 1.221 0 1.608-.676 1.608-1.284 0-3.7 0-15.229-.008-18.93 0-.87-.31-1.252-1.226-1.252h-.182c-.737 0-.9-.388-1-1.127-.091-.64.229-1.069.8-1.069h3.9c.6 0 .817.255.817.844 0 1.957-.05 21.543-.05 21.543"/><path d="M184.364 57.998c-.449-.009-.625-.261-.626-.777V45.169c0-1.553-.708-2.348-1.447-2.463-1.707-.279-4.077 1.063-4.63 1.375a1.03 1.03 0 00-.57.9l.006 10.045c0 .6.374 1.263 1.548 1.284h-.017c.528 0 .814.08.814.834 0 .845-.355.863-.924.869h.013l-5.934-.008c-.606 0-.988.008-.988-.867 0-.756.29-.836.817-.836 1.22 0 1.606-.676 1.606-1.285l-.011-11.589c0-.431-.008-.769-.672-.769h-.509c-.737 0-.9-.385-1-1.124-.086-.639.153-1.068.8-1.068h2.91c.762 0 .952.18 1.015.935s.446.916 1.021.548c.415-.261.817-.575 1.227-.814.8-.515 4.438-2.259 6.821.059a3.087 3.087 0 011.054 2.1c.038.52.053 11.734.053 11.734 0 .6.376 1.263 1.55 1.284h-.008c.528 0 .817.08.817.834 0 .845-.359.863-.93.869z"/><path d="M163.43 53.922a1.633 1.633 0 01-.6 1.14 4.463 4.463 0 01-4.944.471c-1.11-.758-1.655-4.5.8-5.569a11.587 11.587 0 013.942-.614c.578-.025.792.186.8.777.017.651.006 3.186.006 3.8m5.509 3.011c-.164-.578-.553-.877-1.414-.673-1.013.24-1.061-.755-1.061-1.542-.011-1.775-.008-8.064-.017-9.43 0-1.542-.185-5.43-5.192-5.282a14.78 14.78 0 00-5.818 1.501c-.772.368-.664.927-.443 1.263.579.886.778.994 1.757.6a8.672 8.672 0 012.552-.8c1.046-.1 4.094-.41 4.094 2.424.013.535.039 1.076.03 1.616-.009.841-.213.985-1.044 1.008-2.19 0-4.092-.058-5.608.78-1.9 1.052-3.012 2.319-2.782 5.818.069 1.03.706 4.2 5.207 4.2a5.79 5.79 0 003.623-1.3c.55-.426.864-.293 1.259.268a3.381 3.381 0 003.463.91c.877-.218 1.577-.717 1.392-1.359"/><path d="M103.598 57.998c-.449-.009-.625-.261-.628-.777V45.169c0-1.553-.709-2.348-1.448-2.463-1.706-.279-4.075 1.063-4.629 1.375a1.03 1.03 0 00-.57.9l.006 10.045c0 .6.374 1.263 1.55 1.284h-.017c.526 0 .814.08.814.834 0 .845-.357.863-.925.869h.013l-5.934-.008c-.6 0-.986.008-.986-.867 0-.756.29-.836.816-.836 1.221 0 1.608-.676 1.608-1.285l-.011-11.589c0-.431-.009-.769-.672-.769h-.51c-.736 0-.9-.385-1-1.124-.086-.639.153-1.068.8-1.068h2.912c.762 0 .95.18 1.013.935s.448.916 1.022.548c.415-.261.816-.575 1.226-.814.8-.515 4.44-2.259 6.823.059a3.087 3.087 0 011.054 2.1c.036.52.052 11.734.052 11.734 0 .6.376 1.263 1.552 1.284h-.017c.526 0 .816.08.816.834 0 .845-.359.863-.928.869z"/><path d="M82.912 53.922a1.64 1.64 0 01-.606 1.14 4.463 4.463 0 01-4.944.471c-1.11-.758-1.655-4.5.8-5.569a11.593 11.593 0 013.942-.614c.579-.025.792.186.806.777.019.651.006 3.186.006 3.8m5.505 3.006c-.164-.578-.553-.877-1.412-.673-1.013.24-1.063-.755-1.063-1.542-.011-1.775 0-8.064-.017-9.43 0-1.542-.186-5.43-5.192-5.282a14.78 14.78 0 00-5.816 1.506c-.77.368-.664.927-.443 1.263.579.886.778.994 1.757.6a8.685 8.685 0 012.554-.8c1.046-.1 4.092-.41 4.092 2.424.014.535.039 1.076.031 1.616-.011.841-.214.985-1.046 1.008-2.19 0-4.091-.058-5.608.78-1.9 1.052-3.011 2.319-2.782 5.818.069 1.03.706 4.2 5.209 4.2a5.789 5.789 0 003.621-1.3c.55-.426.864-.293 1.26.268a3.38 3.38 0 003.463.91c.877-.218 1.573-.717 1.39-1.359"/><path d="M66.207 41.952c-.575.368-.96.2-1.022-.551s-.251-.927-1.011-.93h-2.907c-.65 0-.889.427-.8 1.068.1.741.26 1.119 1 1.119h.509c.665 0 .672.337.672.77l.011 11.59c0 .607-.387 1.284-1.608 1.284-.528 0-.816.081-.816.833 0 .875.384.867.986.869l5.937.006h.788c.571 0 .927-.017.927-.866 0-.751-.287-.831-.814-.831h-.8c-1.173-.022-1.548-.69-1.548-1.285v-9.826c0-.985 1.043-1.537 2.843-1.78.564-.075 1.044-.042 1.57-.064.387-.023.7-.18.745-.595a15.3 15.3 0 00.116-1.857.639.639 0 00-.485-.7 1.357 1.357 0 00-.363.014 10.859 10.859 0 00-3.931 1.736"/><path d="M130.885 55.072a1.923 1.923 0 01-.9-1.688V45.19a1.953 1.953 0 01.941-1.528 5.813 5.813 0 013.219-1.195 2.893 2.893 0 012.759 1.171c.564.883.949 2.873 1 5.613a15.732 15.732 0 01-.7 4.659 6.547 6.547 0 01-.382.892c-.989 1.613-3.178 2.2-5.938.269m8.838-12.237a8.115 8.115 0 00-.47-.715 5.529 5.529 0 00-7.52-1.065c-.412.24-.8.606-1.22.872-.578.365-.96.2-1.022-.551s-.251-.927-1.013-.93h-2.912l-.011.006c-.65 0-.889.427-.8 1.066.1.742.261 1.123 1 1.123h.51c.662 0 .67.34.67.772l.011 18.679c0 .6-.385 1.281-1.608 1.281-.528 0-.814.085-.814.836 0 .875.382.864.985.866l5.9.009c.568 0 .925-.022.925-.869 0-.751-.288-.834-.817-.834h.044c-1.176-.019-1.552-.683-1.552-1.281v-4.497c0-.266.061-.883.791-.391a6.361 6.361 0 002.573 1.112 5.517 5.517 0 005.292-1.553c1.722-1.963 2.272-4.523 2.272-7.526a14.634 14.634 0 00-1.212-6.4"/><path d="M118.104 47.885c-.9-.3-1.83-.557-2.724-.894a2.42 2.42 0 01-1.883-2.912c.169-1.314 1.37-2.325 4.208-2.012a1.178 1.178 0 011.105 1c.083.338.16.683.271 1.013a1.2 1.2 0 001.622.958c.593-.1.761-.415.8-.944v-1.96a1.261 1.261 0 00-.651-1.232 11.694 11.694 0 00-3.972-.886 6.771 6.771 0 00-3.676.7 4.541 4.541 0 00-2.424 4.777 4.721 4.721 0 002.453 3.734 23.47 23.47 0 003.77 1.454 3.314 3.314 0 011.735 1.24 3.071 3.071 0 01.15 3.037c-.3.7-1.7 1.98-4.5 1.353-.933-.213-1.375-.694-1.489-2.182-.074-.96-.488-1.246-1.458-1.216-.636.022-.91.274-.942.9-.022.418-.045 2.139.009 2.574a1.274 1.274 0 00.337.753c1.049.932 4.769 1.827 7.687.9a5.364 5.364 0 002.247-1.348 4.962 4.962 0 00.839-1.206 5.5 5.5 0 00-3.51-7.609"/></g><path fill="#003764" d="M32.173 44.276c.33 4.389.338 14.316-2.665 15.493-.841.171-.365-18.4-4.263-17.867-2.71.375-2.741.513-3.416 6.128-.855 7.1-2.472 10.59-3.952 12.2-.144.207-.319.259-.468 0-.183-9.529 1.2-18.98 2.236-28.427a3.058 3.058 0 00-.355-2.303c-.612-.924-2.555-.442-3.183.232-1.667 1.784-.493 5.758-1.768 6.084-1.373.273-1.921-9.224 3.357-19.443 1.584-3.062 4.511-5.229 4.46-7.6-.047-2.349-.41-5.786 2.422-6.7C27.63.8 26.683 7.106 26.445 8.141c-.52 2.264 1.368 2.452 3.211 3.536 4.431 2.6 5.8 9.7 5.624 14.537-.346 1.248-4.088-1.794-4 .654zM8.534 63.112c-1.235 0-2.469-2.252-2.726-3.921-.95-6.126 1.732-13.467.969-19.575-1.1 1.836-2.743 4.618-4.443 2.72C.565 40.358.316 37.326.1 34.8-.418 28.586 1.121 22.384 3 16.509c.95-2.987 1.93-4.368 4.814-5.776q1.428-.67 2.878-1.284c2.408-1.069.629-1.347.767-3.54C11.57 4 12.22.544 14.5.088c2.367-.475 6.585 1.054 6.217 2.57-.5 4.538-.459 7.454-3.307 8.084.4-4.282 3-8.781-1.489-8.669-4.7 2.136 2.533 8.853-2.453 10.72-5.217 1.951-6.707 3.693-8.616 9.293-1.86 5.466-2.532 14.2-1.212 14.662.777-.045 1.45-2.294 1.919-4.626.617-3.039 4.553.845 5.032 2.648 1.625 6.117-1.683 13.259-1.368 19.217.734-2.662 5.077-12.412 5.952-11.183 1 2.86-.337 4.43-2.521 10.322-.7 2.54-2.685 9.985-4.121 9.985"/><path fill="#003764" d="M84.028 15.503c.15-.589.333-.828.964-.828s.8-.467.8-1.439c0-.531-.257-.731-.913-.741l-.16-.013c-.885 0-4.183 0-4.34.019a.8.8 0 00-.8 1.046c.1.741.261 1.132 1 1.132h.291c.808 0 1.036.327.82 1.1-.166.582-2.51 9.556-2.624 9.691-.144-.128-3.346-11.687-3.562-12.426a.692.692 0 00-.675-.534 11.668 11.668 0 00-1.782.033.842.842 0 00-.582.474c-.276.845-3.2 12.761-3.3 12.874-.094-.124-2.419-9.94-2.532-10.408a.589.589 0 01.606-.794c.246 0 .514-.006.731-.006.634 0 .8-.467.8-1.439 0-.531-.255-.731-.913-.741-.83-.013-4.006-.013-4.758-.006a4.032 4.032 0 00-.478.019.805.805 0 00-.8 1.049c.1.737.26 1.132 1 1.132.709 0 .725.333.888 1.007.171.706 3.216 12.1 3.618 13.625a.78.78 0 00.78.683c.307.014 1.251.014 1.555.014.407 0 .939-.044 1.229-1.5.063-.307 2.392-10.84 2.7-11.731.3.54 3.593 12.539 3.593 12.539a.781.781 0 00.78.683c.307.014 1.11.014 1.415.014.405 0 .939-.044 1.229-1.5 0 0 3.136-11.853 3.433-13.01"/><path fill="#003764" d="M93.655 27.03c0 .6.387 1.285 1.6 1.285.529 0 .816.08.816.831 0 .877-.382.864-.985.867l-5.935-.008c-.6 0-.986.008-.986-.867 0-.751.288-.834.816-.834 1.22 0 1.606-.676 1.606-1.282q0-5.545-.006-11.091c0-.874-.312-1.256-1.227-1.256h-.178c-.739 0-.9-.39-1-1.129-.091-.64.23-1.068.8-1.068h3.9c.6 0 .816.255.816.845 0 1.957-.049 13.7-.049 13.7"/><path fill="#003764" d="M93.936 7.104a2.107 2.107 0 11-2.106-2.111 2.108 2.108 0 012.106 2.111"/><path fill="#003764" d="M105.898 19.911c-.9-.3-1.829-.557-2.724-.894a2.42 2.42 0 01-1.885-2.912c.169-1.31 1.37-2.322 4.208-2.01a1.181 1.181 0 011.105 1c.083.34.16.683.272 1.011a1.2 1.2 0 001.617.96c.6-.1.764-.41.8-.942v-1.962a1.263 1.263 0 00-.648-1.229 11.706 11.706 0 00-3.975-.886 6.783 6.783 0 00-3.676.7 4.551 4.551 0 00-2.427 4.777 4.743 4.743 0 002.458 3.738 23.778 23.778 0 003.768 1.453 3.274 3.274 0 011.733 1.242 3.068 3.068 0 01.153 3.036c-.3.7-1.707 1.98-4.5 1.35-.933-.208-1.371-.692-1.486-2.182-.074-.957-.488-1.246-1.459-1.212-.633.017-.908.271-.941.9-.022.421-.045 2.14.008 2.572a1.29 1.29 0 00.338.756c1.049.933 4.769 1.827 7.687.9a5.279 5.279 0 002.247-1.348 4.805 4.805 0 00.838-1.2 5.5 5.5 0 00-3.51-7.61"/><path fill="#003764" d="M56.108 19.911c-.9-.3-1.83-.557-2.727-.894a2.419 2.419 0 01-1.883-2.912c.169-1.31 1.37-2.322 4.208-2.01a1.179 1.179 0 011.105 1c.083.34.16.683.271 1.011a1.2 1.2 0 001.62.96c.595-.1.762-.41.8-.942v-1.962a1.258 1.258 0 00-.651-1.229 11.657 11.657 0 00-3.972-.886 6.8 6.8 0 00-3.679.7 4.547 4.547 0 00-2.42 4.777 4.73 4.73 0 002.449 3.738 23.912 23.912 0 003.77 1.453 3.283 3.283 0 011.735 1.242 3.067 3.067 0 01.15 3.036c-.3.7-1.7 1.98-4.5 1.35-.933-.208-1.375-.692-1.49-2.182-.072-.957-.487-1.246-1.456-1.212-.636.017-.91.271-.942.9-.022.421-.045 2.14.009 2.572a1.3 1.3 0 00.333.756c1.052.933 4.772 1.827 7.69.9a5.288 5.288 0 002.247-1.348 4.894 4.894 0 00.839-1.2 5.5 5.5 0 00-3.51-7.61"/><path fill="#003764" d="M120.315 19.911c-.9-.3-1.83-.557-2.726-.894a2.42 2.42 0 01-1.883-2.912c.168-1.31 1.368-2.322 4.207-2.01a1.181 1.181 0 011.107 1c.081.34.16.683.272 1.011a1.2 1.2 0 001.617.96c.6-.1.762-.41.8-.942v-1.962a1.258 1.258 0 00-.648-1.229 11.686 11.686 0 00-3.974-.886 6.789 6.789 0 00-3.678.7 4.549 4.549 0 00-2.424 4.777 4.734 4.734 0 002.455 3.738 23.761 23.761 0 003.767 1.453 3.277 3.277 0 011.735 1.242 3.068 3.068 0 01.153 3.036c-.3.7-1.707 1.98-4.5 1.35-.935-.208-1.373-.692-1.489-2.182-.072-.957-.487-1.246-1.458-1.212-.633.017-.91.271-.941.9-.022.421-.045 2.14.008 2.572a1.3 1.3 0 00.337.756c1.052.933 4.77 1.827 7.689.9a5.279 5.279 0 002.247-1.348 4.846 4.846 0 00.838-1.2 5.5 5.5 0 00-3.51-7.61"/></svg>
