 <svg version="1.0" xmlns="http://www.w3.org/2000/svg"  width="263.000000pt" height="90.000000pt" viewBox="0 0 263.000000 90.000000"  preserveAspectRatio="xMidYMid meet">  <g transform="translate(0.000000,90.000000) scale(0.050000,-0.050000)" fill="#feb602" stroke="none"> <path d="M853 1780 c-6 -16 -24 -82 -40 -145 l-29 -115 78 0 c76 0 78 2 65 55 -47 189 -63 233 -74 205z"/> <path d="M432 1635 c9 -25 26 -85 39 -134 27 -104 42 -113 107 -63 l48 37 -88 103 c-95 110 -130 129 -106 57z"/> <path d="M1197 1590 c-109 -117 -109 -117 -46 -159 65 -42 74 -33 115 118 42 150 37 153 -69 41z"/> <path d="M3420 1500 c0 -30 10 -41 35 -36 19 4 35 20 35 36 0 16 -16 32 -35 36 -25 5 -35 -6 -35 -36z"/> <path d="M2260 1300 c0 -182 5 -220 30 -220 22 0 30 23 30 90 0 88 1 90 66 90 95 0 154 49 154 128 0 94 -51 132 -177 132 l-103 0 0 -220z m189 149 c66 -66 17 -149 -88 -149 -35 0 -41 12 -41 90 0 99 60 127 129 59z"/> <path d="M643 1368 c-470 -235 -306 -989 216 -988 529 1 696 737 223 984 -144 75 -293 77 -439 4z m317 -131 c0 -9 -20 -18 -45 -19 -47 -2 58 -38 129 -44 19 -1 30 -7 25 -12 -5 -5 11 -30 35 -56 98 -104 71 -399 -43 -470 -22 -14 -41 -37 -41 -52 0 -15 -10 -20 -24 -12 -13 9 -65 13 -116 10 -111 -6 -254 47 -271 100 -6 21 -22 38 -35 38 -39 0 -33 355 6 369 16 6 61 33 98 61 37 27 91 51 120 53 47 2 48 3 7 11 -83 16 -46 45 55 43 55 -1 100 -10 100 -20z"/> <path d="M2600 1240 c0 -202 54 -239 64 -45 5 97 13 118 51 135 48 21 62 70 19 70 -14 0 -37 -11 -50 -24 -19 -19 -24 -19 -24 0 0 13 -13 24 -30 24 -24 0 -30 -31 -30 -160z"/> <path d="M2822 1382 c-42 -27 -7 -66 38 -42 58 31 94 24 106 -20 7 -29 0 -40 -27 -40 -109 0 -181 -82 -139 -159 23 -44 127 -58 151 -20 8 14 23 8 40 -15 33 -43 35 -34 29 134 -5 170 -84 234 -198 162z m134 -197 c-7 -64 -88 -90 -108 -36 -16 41 26 91 76 91 30 0 37 -12 32 -55z"/> <path d="M3148 1327 l50 -73 -60 -87 c-55 -80 -57 -87 -20 -87 21 0 45 17 51 38 26 80 66 89 100 23 19 -36 48 -61 71 -61 35 0 33 9 -23 88 l-62 88 42 60 c51 71 53 84 14 84 -17 0 -43 -25 -59 -55 l-28 -55 -25 55 c-15 32 -41 55 -63 55 -34 0 -33 -6 12 -73z"/> <path d="M3420 1240 c0 -129 6 -160 30 -160 24 0 30 31 30 160 0 129 -6 160 -30 160 -24 0 -30 -31 -30 -160z"/> <path d="M3614 1364 c-58 -64 -21 -125 92 -152 97 -23 62 -83 -44 -76 -62 4 -83 -2 -77 -20 17 -52 169 -43 205 12 42 64 18 111 -73 140 -85 28 -90 82 -7 82 86 0 94 39 9 46 -50 4 -81 -5 -105 -32z"/> <path d="M120 1346 c0 -9 44 -61 98 -114 l98 -97 32 62 c42 81 46 75 -73 114 -58 19 -116 39 -130 44 -14 5 -25 1 -25 -9z"/> <path d="M1462 1318 c-134 -46 -128 -39 -90 -117 l33 -65 107 106 c141 139 140 141 -50 76z"/> <path d="M135 946 c-140 -37 -144 -54 -20 -85 52 -12 111 -28 130 -33 29 -9 35 3 35 71 0 44 -7 80 -15 79 -8 -1 -67 -16 -130 -32z"/> <path d="M1445 900 c0 -53 8 -79 23 -73 13 4 75 19 138 32 144 30 144 48 -1 80 -63 15 -125 30 -137 35 -14 5 -23 -22 -23 -74z"/> <path d="M2260 650 l0 -230 49 0 c46 0 49 8 55 115 l6 115 59 -115 c51 -98 67 -115 115 -115 70 0 70 0 -14 126 -85 126 -85 112 2 234 l72 100 -60 0 c-52 0 -70 -15 -122 -105 l-61 -105 -1 105 c0 99 -3 105 -50 105 l-50 0 0 -230z"/> <path d="M4013 867 c-24 -25 -15 -397 11 -423 51 -51 125 -30 88 25 -23 36 -32 98 -32 230 0 175 -17 217 -67 168z"/> <path d="M4174 854 c-15 -41 16 -79 58 -71 54 11 50 85 -4 93 -24 3 -48 -6 -54 -22z"/> <path d="M4379 875 c-25 -183 -4 -455 36 -455 42 0 45 9 45 119 0 96 7 123 37 140 54 28 63 10 63 -132 0 -114 4 -127 40 -127 36 0 40 13 40 148 0 168 -23 204 -120 185 -57 -11 -60 -9 -60 58 0 55 -74 114 -81 64z"/> <path d="M5105 857 c-14 -14 -25 -41 -25 -61 0 -20 -9 -36 -20 -36 -11 0 -20 -13 -20 -30 0 -16 10 -30 22 -30 14 0 19 -49 15 -140 -7 -134 -5 -140 38 -140 42 0 45 8 45 138 0 121 5 139 40 148 22 6 40 20 40 32 0 12 -18 22 -40 22 -55 0 -51 56 5 64 25 3 45 15 45 26 0 30 -116 36 -145 7z"/> <path d="M2654 735 c-56 -42 -11 -89 56 -59 58 27 90 17 90 -27 0 -17 -19 -29 -46 -29 -104 0 -177 -120 -107 -177 15 -13 75 -20 135 -16 l108 6 -7 139 c-8 164 -24 188 -122 188 -40 0 -88 -11 -107 -25z m146 -206 c0 -16 -14 -36 -31 -42 -38 -15 -79 21 -60 51 20 33 91 26 91 -9z"/> <path d="M2960 517 c0 -218 3 -239 35 -233 24 4 37 29 41 77 6 67 9 70 72 63 87 -10 132 50 132 177 0 123 -38 157 -175 156 l-105 -1 0 -239z m176 159 c61 -61 9 -212 -63 -184 -40 15 -47 179 -8 195 39 16 45 15 71 -11z"/> <path d="M3320 550 c0 -114 -6 -222 -13 -240 -10 -26 -3 -32 35 -27 39 6 49 20 54 81 5 55 14 71 35 63 89 -34 169 51 169 179 0 113 -45 153 -171 151 l-109 -1 0 -206z m181 109 c42 -79 -21 -206 -83 -168 -28 17 -22 184 7 196 44 17 53 14 76 -28z"/> <path d="M3728 745 c-172 -115 -8 -402 174 -304 58 31 25 62 -52 48 -55 -11 -71 -5 -89 29 -21 40 -18 42 78 42 110 0 118 12 80 113 -31 82 -124 116 -191 72z m112 -85 c19 -36 15 -40 -40 -40 -55 0 -59 4 -40 40 12 22 30 40 40 40 10 0 28 -18 40 -40z"/> <path d="M4193 747 c-41 -41 -13 -327 32 -327 44 0 45 5 39 170 -7 162 -25 202 -71 157z"/> <path d="M4759 723 c-65 -53 -65 -213 0 -266 66 -54 150 -47 200 16 122 156 -50 372 -200 250z m142 -74 c23 -63 5 -148 -36 -164 -36 -14 -64 28 -65 98 0 119 64 161 101 66z"/> <path d="M210 560 c-120 -121 -113 -130 54 -76 l131 42 -40 67 c-47 81 -28 86 -145 -33z"/> <path d="M1372 599 c-39 -79 -46 -70 99 -118 153 -50 158 -40 36 82 l-102 101 -33 -65z"/> <path d="M492 375 c-4 -14 -18 -64 -31 -112 -13 -48 -29 -100 -35 -115 -21 -57 27 -25 112 74 l88 103 -48 37 c-57 44 -77 47 -86 13z"/> <path d="M1140 361 l-50 -39 99 -101 c119 -121 119 -121 74 39 -41 145 -53 155 -123 101z"/> <path d="M813 165 c45 -178 51 -184 77 -75 13 55 30 120 38 145 14 42 9 45 -65 45 l-79 0 29 -115z"/> </g> </svg> 